# xmcd
#
# Track frame offsets:
#	150
#	13741
#	27363
#	42170
#	54859
#	72277
#	85935
#	106178
#	122071
#	133822
#	151500
#	164872
#	177761
#	188899
#
# Disc length: 2733 seconds
#
# Revision: 0
# Processed by: cddbd v1.4PL0 Copyright (c) Steve Scherf et al.
# Submitted via: dBpowerAMP V4.0
#
DISCID=b30aab0e
DTITLE=Percy Sledge - The Platinum Collection
DYEAR=1900
DGENRE=Soul
TTITLE0=When a Man Loves a Woman
TTITLE1=Take Time to Know Her
TTITLE2=Warm and Tender Love
TTITLE3=It Tears Me Up
TTITLE4=Try a Little Tenderness
TTITLE5=My Special Prayer
TTITLE6=You Send Me
TTITLE7=Out of Left Field
TTITLE8=Tell It Like It Is
TTITLE9=If Loving You is Wrong
TTITLE10=I've Been Loving You Too Long
TTITLE11=Cover Me
TTITLE12=Baby Help Me
TTITLE13=Just Out of Reach (Of My Loving Arms)
EXTD=
EXTT0=
EXTT1=
EXTT2=
EXTT3=
EXTT4=
EXTT5=
EXTT6=
EXTT7=
EXTT8=
EXTT9=
EXTT10=
EXTT11=
EXTT12=
EXTT13=
PLAYORDER=
